<svg width="45" height="17" viewBox="0 0 45 17" fill="none" xmlns="http://www.w3.org/2000/svg">
<path d="M23.92 3.44C24.62 3.44 25.24 3.58 25.77 3.87C26.3 4.16 26.71 4.57 27 5.1C27.29 5.63 27.44 6.28 27.44 7.05C27.44 7.79 27.29 8.44 26.99 9C26.69 9.56 26.28 9.99 25.74 10.31C25.21 10.62 24.6 10.78 23.91 10.78C23.21 10.78 22.59 10.64 22.06 10.35C21.53 10.06 21.12 9.65 20.83 9.11C20.54 8.57 20.39 7.92 20.39 7.17C20.39 6.43 20.54 5.77 20.84 5.22C21.14 4.66 21.56 4.23 22.09 3.91C22.62 3.59 23.23 3.44 23.92 3.44ZM23.88 3.62C23.51 3.62 23.18 3.77 22.91 4.07C22.63 4.37 22.42 4.78 22.27 5.31C22.12 5.83 22.05 6.44 22.05 7.13C22.05 7.83 22.13 8.45 22.3 8.97C22.47 9.49 22.7 9.89 22.99 10.18C23.28 10.46 23.6 10.6 23.95 10.6C24.32 10.6 24.65 10.45 24.92 10.15C25.2 9.85 25.41 9.44 25.56 8.91C25.71 8.38 25.78 7.78 25.78 7.09C25.78 6.38 25.7 5.76 25.53 5.25C25.36 4.73 25.13 4.33 24.84 4.05C24.56 3.76 24.23 3.62 23.88 3.62Z" fill="#333333"/>
<path d="M30.14 5.37V12.18C30.14 12.49 30.22 12.7 30.38 12.8C30.54 12.9 30.76 12.95 31.04 12.95V13.16C30.87 13.15 30.63 13.14 30.33 13.14C30.03 13.13 29.71 13.13 29.37 13.13C29.12 13.13 28.88 13.13 28.65 13.14C28.41 13.15 28.24 13.16 28.12 13.16V12.95C28.34 12.95 28.49 12.9 28.58 12.81C28.67 12.72 28.71 12.54 28.71 12.27V6.56C28.71 6.26 28.66 6.04 28.57 5.9C28.48 5.76 28.31 5.69 28.07 5.69V5.48C28.28 5.5 28.49 5.51 28.69 5.51C28.96 5.51 29.22 5.5 29.47 5.48C29.71 5.45 29.94 5.42 30.14 5.37ZM31.69 5.34C32.03 5.34 32.33 5.43 32.6 5.61C32.87 5.79 33.08 6.07 33.24 6.44C33.4 6.81 33.48 7.27 33.48 7.82C33.48 8.31 33.43 8.73 33.32 9.1C33.21 9.47 33.05 9.77 32.85 10.02C32.65 10.27 32.4 10.46 32.12 10.58C31.84 10.71 31.52 10.77 31.17 10.77C30.91 10.77 30.67 10.72 30.46 10.64C30.25 10.55 30.08 10.42 29.97 10.26L30.07 10.13C30.14 10.25 30.23 10.34 30.35 10.41C30.47 10.48 30.61 10.51 30.77 10.51C31.07 10.51 31.3 10.41 31.48 10.21C31.65 10.01 31.78 9.72 31.85 9.35C31.93 8.98 31.96 8.54 31.96 8.03C31.96 7.46 31.92 7.01 31.85 6.68C31.78 6.35 31.68 6.12 31.55 5.98C31.42 5.84 31.27 5.77 31.09 5.77C30.85 5.77 30.63 5.86 30.44 6.05C30.24 6.24 30.13 6.5 30.11 6.85L30.06 6.5C30.18 6.12 30.38 5.83 30.67 5.64C30.96 5.44 31.3 5.34 31.69 5.34Z" fill="#333333"/>
<path d="M39.05 5.37V9.55C39.05 9.85 39.1 10.07 39.19 10.21C39.28 10.35 39.45 10.42 39.69 10.42V10.63C39.48 10.61 39.28 10.6 39.07 10.6C38.79 10.6 38.53 10.61 38.29 10.63C38.05 10.65 37.82 10.69 37.61 10.74V9.83999C37.45 10.17 37.23 10.41 36.95 10.55C36.67 10.69 36.35 10.76 36.01 10.76C35.73 10.76 35.51 10.72 35.33 10.65C35.16 10.58 35.02 10.48 34.92 10.37C34.81 10.24 34.73 10.08 34.68 9.87C34.63 9.66 34.61 9.39999 34.61 9.06999V6.55C34.61 6.25 34.57 6.02999 34.48 5.88999C34.39 5.74999 34.22 5.67999 33.98 5.67999V5.46999C34.19 5.48999 34.4 5.49999 34.6 5.49999C34.88 5.49999 35.14 5.48999 35.38 5.46999C35.62 5.44999 35.85 5.41 36.05 5.37V9.49999C36.05 9.66999 36.07 9.80999 36.1 9.93999C36.13 10.07 36.19 10.16 36.27 10.23C36.36 10.3 36.48 10.33 36.65 10.33C36.83 10.33 36.99 10.28 37.13 10.18C37.27 10.08 37.39 9.93999 37.48 9.76999C37.57 9.59999 37.61 9.39999 37.61 9.17999V6.56999C37.61 6.26999 37.56 6.05 37.48 5.91C37.39 5.77 37.22 5.69999 36.98 5.69999V5.48999C37.19 5.50999 37.4 5.51999 37.6 5.51999C37.88 5.51999 38.14 5.50999 38.38 5.48999C38.62 5.44999 38.84 5.42 39.05 5.37Z" fill="#333333"/>
<path d="M42.1 5.34C42.38 5.34 42.62 5.37 42.83 5.44C43.04 5.51 43.19 5.58 43.28 5.64C43.51 5.79 43.65 5.69 43.7 5.34H43.91C43.9 5.53 43.89 5.75 43.88 6.02C43.87 6.29 43.87 6.65 43.87 7.09H43.66C43.63 6.84 43.56 6.6 43.47 6.36C43.38 6.12 43.24 5.92 43.07 5.77C42.89 5.62 42.67 5.54 42.39 5.54C42.2 5.54 42.03 5.59 41.9 5.7C41.77 5.81 41.7 5.97 41.7 6.17C41.7 6.37 41.76 6.54 41.88 6.69C42 6.84 42.15 6.98 42.34 7.12C42.53 7.26 42.73 7.4 42.93 7.55C43.15 7.72 43.35 7.88 43.53 8.04C43.71 8.2 43.85 8.38 43.96 8.57C44.07 8.76 44.12 8.99 44.12 9.26C44.12 9.56 44.03 9.82 43.86 10.04C43.69 10.26 43.46 10.43 43.18 10.55C42.9 10.67 42.58 10.73 42.24 10.73C42.04 10.73 41.86 10.71 41.71 10.67C41.55 10.63 41.42 10.58 41.31 10.52C41.22 10.48 41.14 10.44 41.07 10.41C40.99 10.37 40.92 10.34 40.86 10.32C40.79 10.3 40.74 10.32 40.69 10.39C40.64 10.46 40.6 10.55 40.58 10.67H40.37C40.38 10.46 40.39 10.2 40.4 9.89C40.41 9.58 40.41 9.18 40.41 8.67H40.62C40.66 9.03 40.73 9.35 40.84 9.62C40.95 9.9 41.09 10.11 41.27 10.27C41.45 10.43 41.68 10.5 41.96 10.5C42.07 10.5 42.18 10.48 42.29 10.43C42.4 10.38 42.48 10.31 42.55 10.2C42.62 10.09 42.65 9.96 42.65 9.79C42.65 9.5 42.56 9.26 42.37 9.06C42.18 8.87 41.94 8.66 41.65 8.43C41.44 8.26 41.24 8.09 41.05 7.92C40.86 7.75 40.71 7.56 40.59 7.36C40.47 7.16 40.41 6.93 40.41 6.67C40.41 6.37 40.49 6.12 40.65 5.91C40.81 5.7 41.02 5.55 41.28 5.45C41.52 5.39 41.8 5.34 42.1 5.34Z" fill="#333333"/>
<path d="M8.09 0.429993C9.6 0.429993 10.92 0.739991 12.06 1.34999C13.19 1.95999 14.07 2.83999 14.7 3.98999C15.33 5.13999 15.64 6.52999 15.64 8.16999C15.64 9.76999 15.32 11.16 14.68 12.36C14.04 13.56 13.15 14.49 12.01 15.16C10.87 15.83 9.56002 16.16 8.08002 16.16C6.57002 16.16 5.25002 15.85 4.11002 15.24C2.98002 14.63 2.1 13.74 1.47 12.59C0.840001 11.44 0.529999 10.05 0.529999 8.41999C0.529999 6.81999 0.85 5.43 1.5 4.23C2.15 3.03 3.04001 2.09999 4.17001 1.42999C5.30001 0.769993 6.61 0.429993 8.09 0.429993ZM8.01001 0.819992C7.21001 0.819992 6.52002 1.13999 5.93002 1.77999C5.34002 2.41999 4.88 3.30999 4.56 4.42999C4.24 5.55999 4.08002 6.85999 4.08002 8.33999C4.08002 9.84999 4.26 11.17 4.63 12.29C4.99001 13.41 5.49002 14.27 6.11002 14.88C6.73002 15.49 7.42001 15.79 8.17001 15.79C8.97001 15.79 9.66001 15.47 10.26 14.83C10.85 14.19 11.31 13.3 11.63 12.17C11.95 11.04 12.11 9.73999 12.11 8.26999C12.11 6.73999 11.93 5.42999 11.57 4.30999C11.21 3.19999 10.71 2.34 10.09 1.73C9.45 1.12 8.76001 0.819992 8.01001 0.819992Z" fill="#007AFF"/>
<path d="M9.99002 7.94C9.12002 7.68 8.71 7.26 8.44 6.39C8.33 6.01 8.27002 5.62 8.27002 5.22H7.91C7.91 5.62 7.85001 6.01 7.73001 6.39C7.47001 7.27 7.05001 7.68 6.17001 7.94C5.79001 8.06 5.39 8.11 5 8.11V8.48C5.4 8.48 5.80002 8.54 6.18002 8.65C7.05002 8.92 7.47001 9.33 7.73001 10.21C7.85001 10.59 7.91 10.98 7.91 11.38H8.27002C8.27002 10.98 8.33 10.59 8.44 10.21C8.7 9.34 9.12001 8.92 9.98001 8.65C10.37 8.54 10.77 8.48 11.16 8.48V8.11C10.77 8.11 10.37 8.06 9.99002 7.94Z" fill="#007AFF"/>
</svg>
