<svg width="22" height="23" viewBox="0 0 22 23" fill="none" xmlns="http://www.w3.org/2000/svg">
<path d="M11.34 0.290009C13.45 0.290009 15.31 0.720008 16.89 1.58001C18.48 2.44001 19.71 3.67001 20.59 5.28001C21.47 6.89001 21.91 8.84001 21.91 11.13C21.91 13.36 21.46 15.32 20.56 17C19.66 18.68 18.42 19.98 16.82 20.92C15.22 21.86 13.39 22.33 11.31 22.33C9.19 22.33 7.34001 21.9 5.76001 21.04C4.17001 20.18 2.94 18.95 2.06 17.33C1.18 15.71 0.740021 13.77 0.740021 11.49C0.740021 9.26001 1.19001 7.30001 2.10001 5.62001C3.01001 3.94001 4.25 2.64001 5.84 1.70001C7.43 0.760008 9.26 0.290009 11.34 0.290009ZM11.22 0.820007C10.1 0.820007 9.13002 1.27001 8.30002 2.17001C7.47002 3.07001 6.83 4.31001 6.38 5.88001C5.93001 7.46001 5.71002 9.28001 5.71002 11.36C5.71002 13.48 5.96 15.32 6.47 16.88C6.98 18.44 7.67001 19.65 8.54001 20.5C9.41001 21.35 10.37 21.77 11.43 21.77C12.55 21.77 13.52 21.32 14.35 20.42C15.18 19.52 15.82 18.28 16.26 16.69C16.71 15.1 16.93 13.28 16.93 11.23C16.93 9.10001 16.68 7.25001 16.17 5.69001C15.66 4.13001 14.97 2.93001 14.1 2.08001C13.24 1.25001 12.28 0.820007 11.22 0.820007Z" fill="#007AFF"/>
<path d="M14 10.8C12.78 10.44 12.21 9.85002 11.83 8.63002C11.68 8.10002 11.59 7.55002 11.59 6.99002H11.09C11.09 7.55002 11.01 8.10002 10.84 8.63002C10.48 9.86002 9.89 10.44 8.66 10.8C8.13 10.97 7.57002 11.04 7.02002 11.04V11.56C7.58002 11.56 8.14001 11.64 8.67001 11.8C9.89001 12.18 10.48 12.75 10.84 13.98C11.01 14.51 11.09 15.06 11.09 15.62H11.59C11.59 15.06 11.67 14.51 11.83 13.98C12.19 12.76 12.78 12.17 13.99 11.8C14.54 11.65 15.1 11.56 15.64 11.56V11.04C15.09 11.03 14.53 10.96 14 10.8Z" fill="#007AFF"/>
</svg>
